<mxfile host="Electron" agent="Mozilla/5.0 (X11; Linux x86_64) AppleWebKit/537.36 (KHTML, like Gecko) draw.io/28.0.6 Chrome/138.0.7204.100 Electron/37.2.3 Safari/537.36" version="28.0.6">
  <diagram name="Page-1" id="CDVQCWwQRoDoAw2ZBLa_">
    <mxGraphModel dx="2168" dy="2081" grid="1" gridSize="10" guides="1" tooltips="1" connect="1" arrows="1" fold="1" page="1" pageScale="1" pageWidth="850" pageHeight="1100" math="1" shadow="0">
      <root>
        <mxCell id="0" />
        <mxCell id="1" parent="0" />
        <mxCell id="ccWOJ5yVY79j-pDIwVMd-35" value="" style="triangle;whiteSpace=wrap;html=1;direction=north;fillColor=none;strokeWidth=3;strokeColor=#6666FF;" parent="1" vertex="1">
          <mxGeometry x="-520" y="400" width="320" height="80" as="geometry" />
        </mxCell>
        <mxCell id="ccWOJ5yVY79j-pDIwVMd-32" value="" style="triangle;whiteSpace=wrap;html=1;direction=north;fillColor=none;strokeWidth=3;strokeColor=#FF00FF;" parent="1" vertex="1">
          <mxGeometry x="760" y="400" width="320" height="80" as="geometry" />
        </mxCell>
        <mxCell id="ccWOJ5yVY79j-pDIwVMd-8" value="" style="triangle;whiteSpace=wrap;html=1;direction=north;fillColor=none;strokeWidth=3;strokeColor=#FF0000;" parent="1" vertex="1">
          <mxGeometry x="200" y="-40" width="160" height="160" as="geometry" />
        </mxCell>
        <mxCell id="ccWOJ5yVY79j-pDIwVMd-9" value="" style="triangle;whiteSpace=wrap;html=1;direction=north;fillColor=none;strokeWidth=3;strokeColor=#6666FF;" parent="1" vertex="1">
          <mxGeometry x="-120" y="-40" width="160" height="160" as="geometry" />
        </mxCell>
        <mxCell id="ccWOJ5yVY79j-pDIwVMd-10" value="" style="triangle;whiteSpace=wrap;html=1;direction=north;fillColor=none;strokeWidth=3;strokeColor=#FF00FF;" parent="1" vertex="1">
          <mxGeometry x="520" y="-40" width="160" height="160" as="geometry" />
        </mxCell>
        <mxCell id="ccWOJ5yVY79j-pDIwVMd-11" value="" style="endArrow=block;html=1;rounded=0;endFill=1;strokeWidth=3;" parent="1" edge="1">
          <mxGeometry width="50" height="50" relative="1" as="geometry">
            <mxPoint x="280" y="210" as="sourcePoint" />
            <mxPoint x="280" y="-80" as="targetPoint" />
          </mxGeometry>
        </mxCell>
        <mxCell id="ccWOJ5yVY79j-pDIwVMd-3" value="" style="endArrow=block;html=1;rounded=0;strokeWidth=3;endFill=1;" parent="1" edge="1">
          <mxGeometry width="50" height="50" relative="1" as="geometry">
            <mxPoint x="-261.42857142857144" y="120" as="sourcePoint" />
            <mxPoint x="800" y="120" as="targetPoint" />
          </mxGeometry>
        </mxCell>
        <mxCell id="ccWOJ5yVY79j-pDIwVMd-12" value="&lt;font&gt;$$0$$&lt;/font&gt;" style="text;html=1;align=center;verticalAlign=middle;whiteSpace=wrap;rounded=0;fontSize=28;" parent="1" vertex="1">
          <mxGeometry x="270" y="130" width="60" height="30" as="geometry" />
        </mxCell>
        <mxCell id="ccWOJ5yVY79j-pDIwVMd-13" value="&lt;font&gt;$$2\pi$$&lt;/font&gt;" style="text;html=1;align=center;verticalAlign=middle;whiteSpace=wrap;rounded=0;fontSize=28;" parent="1" vertex="1">
          <mxGeometry x="570" y="130" width="60" height="30" as="geometry" />
        </mxCell>
        <mxCell id="ccWOJ5yVY79j-pDIwVMd-14" value="&lt;font&gt;$$-2\pi$$&lt;/font&gt;" style="text;html=1;align=center;verticalAlign=middle;whiteSpace=wrap;rounded=0;fontSize=28;" parent="1" vertex="1">
          <mxGeometry x="-70" y="130" width="60" height="30" as="geometry" />
        </mxCell>
        <mxCell id="ccWOJ5yVY79j-pDIwVMd-15" value="&lt;font style=&quot;font-size: 32px;&quot;&gt;$$\omega$$&lt;/font&gt;" style="text;html=1;align=center;verticalAlign=middle;whiteSpace=wrap;rounded=0;" parent="1" vertex="1">
          <mxGeometry x="750" y="130" width="60" height="30" as="geometry" />
        </mxCell>
        <mxCell id="ccWOJ5yVY79j-pDIwVMd-17" value="&lt;font style=&quot;font-size: 32px;&quot;&gt;$$P_{zz}$$&lt;/font&gt;" style="text;html=1;align=center;verticalAlign=middle;whiteSpace=wrap;rounded=0;" parent="1" vertex="1">
          <mxGeometry x="180" y="-80" width="60" height="30" as="geometry" />
        </mxCell>
        <mxCell id="ccWOJ5yVY79j-pDIwVMd-18" value="" style="triangle;whiteSpace=wrap;html=1;direction=north;fillColor=#FF0000;strokeWidth=3;strokeColor=none;opacity=20;" parent="1" vertex="1">
          <mxGeometry x="200" y="-40" width="160" height="160" as="geometry" />
        </mxCell>
        <mxCell id="ccWOJ5yVY79j-pDIwVMd-20" value="" style="triangle;whiteSpace=wrap;html=1;direction=north;fillColor=none;strokeWidth=3;strokeColor=#FF0000;" parent="1" vertex="1">
          <mxGeometry x="120" y="400" width="320" height="80" as="geometry" />
        </mxCell>
        <mxCell id="ccWOJ5yVY79j-pDIwVMd-21" value="" style="triangle;whiteSpace=wrap;html=1;direction=north;fillColor=none;strokeWidth=3;strokeColor=#009900;dashed=1;" parent="1" vertex="1">
          <mxGeometry x="-200" y="400" width="320" height="80" as="geometry" />
        </mxCell>
        <mxCell id="ccWOJ5yVY79j-pDIwVMd-22" value="" style="triangle;whiteSpace=wrap;html=1;direction=north;fillColor=none;strokeWidth=3;strokeColor=#009900;dashed=1;" parent="1" vertex="1">
          <mxGeometry x="440" y="400" width="320" height="80" as="geometry" />
        </mxCell>
        <mxCell id="ccWOJ5yVY79j-pDIwVMd-23" value="" style="endArrow=block;html=1;rounded=0;endFill=1;strokeWidth=3;" parent="1" edge="1">
          <mxGeometry width="50" height="50" relative="1" as="geometry">
            <mxPoint x="279.9985714285716" y="570" as="sourcePoint" />
            <mxPoint x="279.9985714285716" y="280" as="targetPoint" />
          </mxGeometry>
        </mxCell>
        <mxCell id="ccWOJ5yVY79j-pDIwVMd-24" value="" style="endArrow=block;html=1;rounded=0;strokeWidth=3;endFill=1;" parent="1" edge="1">
          <mxGeometry width="50" height="50" relative="1" as="geometry">
            <mxPoint x="-580" y="480" as="sourcePoint" />
            <mxPoint x="1157.9411764705883" y="480" as="targetPoint" />
          </mxGeometry>
        </mxCell>
        <mxCell id="ccWOJ5yVY79j-pDIwVMd-25" value="&lt;font&gt;$$0$$&lt;/font&gt;" style="text;html=1;align=center;verticalAlign=middle;whiteSpace=wrap;rounded=0;fontSize=28;" parent="1" vertex="1">
          <mxGeometry x="269.9985714285715" y="490" width="60" height="30" as="geometry" />
        </mxCell>
        <mxCell id="ccWOJ5yVY79j-pDIwVMd-26" value="&lt;font&gt;$$2\pi$$&lt;/font&gt;" style="text;html=1;align=center;verticalAlign=middle;whiteSpace=wrap;rounded=0;fontSize=28;" parent="1" vertex="1">
          <mxGeometry x="569.9985714285716" y="490" width="60" height="30" as="geometry" />
        </mxCell>
        <mxCell id="ccWOJ5yVY79j-pDIwVMd-27" value="&lt;font&gt;$$-2\pi$$&lt;/font&gt;" style="text;html=1;align=center;verticalAlign=middle;whiteSpace=wrap;rounded=0;fontSize=28;" parent="1" vertex="1">
          <mxGeometry x="-70.0014285714285" y="490" width="60" height="30" as="geometry" />
        </mxCell>
        <mxCell id="ccWOJ5yVY79j-pDIwVMd-28" value="&lt;font style=&quot;font-size: 32px;&quot;&gt;$$\omega$$&lt;/font&gt;" style="text;html=1;align=center;verticalAlign=middle;whiteSpace=wrap;rounded=0;" parent="1" vertex="1">
          <mxGeometry x="1119.9985714285717" y="490" width="60" height="30" as="geometry" />
        </mxCell>
        <mxCell id="ccWOJ5yVY79j-pDIwVMd-29" value="&lt;font style=&quot;font-size: 32px;&quot;&gt;$$P_{yy}$$&lt;/font&gt;" style="text;html=1;align=center;verticalAlign=middle;whiteSpace=wrap;rounded=0;" parent="1" vertex="1">
          <mxGeometry x="179.9985714285715" y="280" width="60" height="30" as="geometry" />
        </mxCell>
        <mxCell id="ccWOJ5yVY79j-pDIwVMd-30" value="" style="triangle;whiteSpace=wrap;html=1;direction=north;fillColor=#FF0000;strokeWidth=3;strokeColor=none;opacity=20;" parent="1" vertex="1">
          <mxGeometry x="115" y="400" width="330" height="80" as="geometry" />
        </mxCell>
        <mxCell id="ccWOJ5yVY79j-pDIwVMd-33" value="&lt;font&gt;$$4\pi$$&lt;/font&gt;" style="text;html=1;align=center;verticalAlign=middle;whiteSpace=wrap;rounded=0;fontSize=28;" parent="1" vertex="1">
          <mxGeometry x="890" y="490" width="60" height="30" as="geometry" />
        </mxCell>
        <mxCell id="ccWOJ5yVY79j-pDIwVMd-36" value="" style="endArrow=none;html=1;rounded=0;strokeWidth=5;startArrow=block;startFill=0;fillColor=#bac8d3;strokeColor=#23445d;" parent="1" edge="1">
          <mxGeometry width="50" height="50" relative="1" as="geometry">
            <mxPoint x="-320" y="380" as="sourcePoint" />
            <mxPoint x="-100" y="160" as="targetPoint" />
          </mxGeometry>
        </mxCell>
        <mxCell id="ccWOJ5yVY79j-pDIwVMd-37" value="&lt;font&gt;$$-4\pi$$&lt;/font&gt;" style="text;html=1;align=center;verticalAlign=middle;whiteSpace=wrap;rounded=0;fontSize=28;" parent="1" vertex="1">
          <mxGeometry x="-400" y="490" width="60" height="30" as="geometry" />
        </mxCell>
        <mxCell id="ccWOJ5yVY79j-pDIwVMd-38" value="&lt;font style=&quot;font-size: 32px; color: light-dark(rgb(102, 0, 51), rgb(166, 109, 145));&quot;&gt;&lt;b style=&quot;&quot;&gt;$$M=2$$&lt;/b&gt;&lt;/font&gt;" style="text;html=1;align=center;verticalAlign=middle;whiteSpace=wrap;rounded=0;" parent="1" vertex="1">
          <mxGeometry x="-435" y="140" width="60" height="30" as="geometry" />
        </mxCell>
        <mxCell id="ccWOJ5yVY79j-pDIwVMd-42" value="" style="shape=flexArrow;endArrow=classic;html=1;rounded=0;strokeWidth=3;fillColor=#E6D0DE;strokeColor=#B5739D;width=16.091954022988507;endSize=12.843678160919541;endWidth=28.484608270577358;" parent="1" edge="1">
          <mxGeometry width="50" height="50" relative="1" as="geometry">
            <mxPoint x="-475" y="90" as="sourcePoint" />
            <mxPoint x="-475" y="240" as="targetPoint" />
          </mxGeometry>
        </mxCell>
        <mxCell id="ccWOJ5yVY79j-pDIwVMd-43" value="&lt;font&gt;$$p=0$$&lt;/font&gt;" style="text;html=1;align=center;verticalAlign=middle;whiteSpace=wrap;rounded=0;fontSize=28;" parent="1" vertex="1">
          <mxGeometry x="-330" y="280" width="60" height="30" as="geometry" />
        </mxCell>
        <mxCell id="ccWOJ5yVY79j-pDIwVMd-44" value="&lt;font&gt;$$p=0$$&lt;/font&gt;" style="text;html=1;align=center;verticalAlign=middle;whiteSpace=wrap;rounded=0;fontSize=28;" parent="1" vertex="1">
          <mxGeometry x="350" y="270" width="60" height="30" as="geometry" />
        </mxCell>
        <mxCell id="ccWOJ5yVY79j-pDIwVMd-45" value="" style="endArrow=none;html=1;rounded=0;strokeWidth=5;startArrow=block;startFill=0;fillColor=#bac8d3;strokeColor=#23445d;" parent="1" edge="1">
          <mxGeometry width="50" height="50" relative="1" as="geometry">
            <mxPoint x="320" y="360" as="sourcePoint" />
            <mxPoint x="320" y="200" as="targetPoint" />
          </mxGeometry>
        </mxCell>
        <mxCell id="ccWOJ5yVY79j-pDIwVMd-46" value="" style="endArrow=none;html=1;rounded=0;strokeWidth=5;startArrow=block;startFill=0;fillColor=#bac8d3;strokeColor=#23445d;" parent="1" edge="1">
          <mxGeometry width="50" height="50" relative="1" as="geometry">
            <mxPoint x="850" y="400" as="sourcePoint" />
            <mxPoint x="630" y="180" as="targetPoint" />
          </mxGeometry>
        </mxCell>
        <mxCell id="ccWOJ5yVY79j-pDIwVMd-47" value="&lt;font&gt;$$p=0$$&lt;/font&gt;" style="text;html=1;align=center;verticalAlign=middle;whiteSpace=wrap;rounded=0;fontSize=28;flipH=1;" parent="1" vertex="1">
          <mxGeometry x="780" y="270" width="60" height="30" as="geometry" />
        </mxCell>
        <mxCell id="ccWOJ5yVY79j-pDIwVMd-48" value="&lt;font&gt;$$p=1$$&lt;/font&gt;" style="text;html=1;align=center;verticalAlign=middle;whiteSpace=wrap;rounded=0;fontSize=28;" parent="1" vertex="1">
          <mxGeometry x="-40" y="340" width="60" height="30" as="geometry" />
        </mxCell>
        <mxCell id="ccWOJ5yVY79j-pDIwVMd-49" value="&lt;font&gt;$$p=1$$&lt;/font&gt;" style="text;html=1;align=center;verticalAlign=middle;whiteSpace=wrap;rounded=0;fontSize=28;" parent="1" vertex="1">
          <mxGeometry x="600" y="340" width="60" height="30" as="geometry" />
        </mxCell>
        <mxCell id="ccWOJ5yVY79j-pDIwVMd-52" value="&lt;font style=&quot;font-size: 32px; color: rgb(255, 0, 0);&quot;&gt;$$A_{zz}$$&lt;/font&gt;" style="text;html=1;align=center;verticalAlign=middle;whiteSpace=wrap;rounded=0;fontSize=28;" parent="1" vertex="1">
          <mxGeometry x="280" y="80" width="60" height="30" as="geometry" />
        </mxCell>
        <mxCell id="ccWOJ5yVY79j-pDIwVMd-53" value="&lt;font style=&quot;font-size: 32px; color: rgb(255, 0, 0);&quot;&gt;$$A_{yy}=A_{zz}$$&lt;/font&gt;" style="text;html=1;align=center;verticalAlign=middle;whiteSpace=wrap;rounded=0;fontSize=28;" parent="1" vertex="1">
          <mxGeometry x="250" y="440" width="60" height="30" as="geometry" />
        </mxCell>
      </root>
    </mxGraphModel>
  </diagram>
</mxfile>
